<?xml version="1.0" encoding="UTF-8"?>
<svg version="1.1" xmlns="http://www.w3.org/2000/svg" width="477" height="477">
<path d="M0 0 C0.66870117 0.28423828 1.33740234 0.56847656 2.02636719 0.86132812 C23.92249013 10.33158027 43.53197434 23.77456651 61.33544922 39.54882812 C62.53061506 40.59078556 63.74275341 41.61339437 64.96533203 42.62304688 C65.60712402 43.15478516 66.24891602 43.68652344 66.91015625 44.234375 C67.50062744 44.71616211 68.09109863 45.19794922 68.69946289 45.69433594 C70 47 70 47 70 49 C70.598125 49.268125 71.19625 49.53625 71.8125 49.8125 C73.99847854 50.99917406 75.41332594 52.09599113 77 54 C77 54.66 77 55.32 77 56 C77.99 56.33 78.98 56.66 80 57 C84.07628737 60.96037399 87.53830622 65.52608047 90.6640625 70.26171875 C92.06892472 72.17754336 92.06892472 72.17754336 94.34765625 74.26953125 C97.29702378 77.30577264 99.51972019 80.46097531 101.8125 84 C102.46424194 84.99773437 102.46424194 84.99773437 103.12915039 86.015625 C104.01223392 87.37287016 104.89207624 88.73223008 105.76855469 90.09375 C106.84449358 91.75927952 107.94015557 93.41203441 109.0390625 95.0625 C121.55188502 114.42390439 130.27211358 136.16643561 135.75 158.5 C136.03012939 159.63526123 136.03012939 159.63526123 136.31591797 160.79345703 C136.94284891 163.51917026 137.47986599 166.25174431 138 169 C138.1266806 169.64077484 138.25336121 170.28154968 138.38388062 170.94174194 C141.17621727 185.43403747 141.43305861 199.73884847 141.33618164 214.46508789 C141.31242958 218.32394121 141.31566586 222.18210677 141.32226562 226.04101562 C141.2880891 257.15880297 141.2880891 257.15880297 135.90234375 271.12109375 C134.98302018 274.0541737 134.61900857 276.87029327 134.28442383 279.91821289 C133.81228343 283.37395639 132.87002995 286.66284085 131.875 290 C131.65835693 290.72695068 131.44171387 291.45390137 131.21850586 292.20288086 C128.11760956 302.23774087 124.52781843 313.22765802 117.26171875 321.03125 C115.68640662 323.48932217 115.31766067 325.97218959 114.6730957 328.78759766 C113.42147105 332.90157031 111.07509406 336.35226329 108.75 339.9375 C108.22712402 340.75508789 107.70424805 341.57267578 107.16552734 342.41503906 C101.89408473 350.47359199 95.89359 357.86694115 89.60229492 365.14453125 C88.51333192 366.40555804 87.43303511 367.67410985 86.3605957 368.94921875 C85.83812256 369.56925781 85.31564941 370.18929688 84.77734375 370.828125 C84.31577881 371.37887695 83.85421387 371.92962891 83.37866211 372.49707031 C82 374 82 374 78.9375 376.5 C76.54617835 378.53516736 75.29615399 379.85988529 73.625 382.375 C70.6882217 386.67858078 66.98533737 389.68860586 63 393 C62.07316406 393.81339844 61.14632813 394.62679688 60.19140625 395.46484375 C47.43634215 406.62476088 33.725887 416.0496754 18.77856445 424.02709961 C16.97003869 425.01638927 15.2097232 426.06976951 13.44140625 427.12890625 C10.12918067 428.92976442 7.19217171 429.97343787 3.5625 430.9375 C-1.27645556 432.34217967 -4.98038488 434.01135843 -9.11328125 436.8359375 C-14.30021716 440.03615883 -20.49245844 441.18723324 -26.39453125 442.40625 C-29.57142097 443.13021887 -32.67928886 444.04326461 -35.8125 444.9375 C-45.05335432 447.49343035 -54.4952385 448.83754036 -64 450 C-64.75418213 450.10296387 -65.50836426 450.20592773 -66.28540039 450.31201172 C-75.47646305 451.38233553 -84.7255623 451.01781715 -93.95727539 450.81298828 C-96.89918793 450.75080974 -99.84092851 450.70889188 -102.78320312 450.66796875 C-112.23034962 450.49552674 -121.52343498 450.01480469 -130.87890625 448.640625 C-132.06310402 448.46838409 -132.06310402 448.46838409 -133.27122498 448.29266357 C-138.02878385 447.52290666 -142.45307789 446.303103 -146.99104309 444.68096924 C-149.98164991 443.6672535 -153.0273153 443.09272327 -156.125 442.5 C-161.1103527 441.4731344 -165.3574085 440.11026886 -170 438 C-172.09921727 437.3585725 -174.20407023 436.73546397 -176.3125 436.125 C-182.28585238 434.31736435 -187.53209762 431.97610115 -193 429 C-194.22337388 428.34656085 -195.44737915 427.69430298 -196.671875 427.04296875 C-198.60742675 426.01328772 -200.54203741 424.98219409 -202.47216797 423.94238281 C-205.61575303 422.25104788 -208.77018968 420.63095376 -211.9921875 419.09375 C-216.1800772 417.00891146 -219.80211729 414.41161894 -223.5 411.5625 C-224.5199707 410.78676636 -224.5199707 410.78676636 -225.56054688 409.99536133 C-252.67852011 389.23666487 -252.67852011 389.23666487 -260 381 C-260 380.34 -260 379.68 -260 379 C-260.66 379 -261.32 379 -262 379 C-264.54673179 376.54008862 -266.72452742 373.7096912 -269 371 C-269.81597656 370.07058594 -270.63195312 369.14117187 -271.47265625 368.18359375 C-276.27925624 362.62301729 -280.21659682 357.18172351 -283.56640625 350.60546875 C-286.36927229 345.51143155 -290.16427969 341.12152108 -293.95703125 336.73828125 C-296.4732678 333.36565826 -298.24077978 329.84283271 -300.0625 326.0625 C-300.40087891 325.37220703 -300.73925781 324.68191406 -301.08789062 323.97070312 C-301.75332782 322.61279937 -302.41615389 321.25361245 -303.07617188 319.89306641 C-303.90176246 318.20130387 -304.74832653 316.51981379 -305.59765625 314.83984375 C-314.9048308 295.99216715 -320.37400297 275.99475348 -323.61962891 255.32006836 C-323.89013884 253.67009668 -324.1927479 252.02524892 -324.51708984 250.38500977 C-326.51965085 239.41932989 -326.3966281 228.42628625 -326.375 217.3125 C-326.37445618 216.26642578 -326.37391235 215.22035156 -326.37335205 214.14257812 C-326.33494482 198.08651315 -325.62263581 182.70356489 -322 167 C-321.78037598 166.01789551 -321.56075195 165.03579102 -321.33447266 164.02392578 C-313.62116895 130.26116327 -299.1311248 99.96731747 -277.50097656 72.91210938 C-275.93285299 70.91446074 -274.43091849 68.87639038 -272.9296875 66.828125 C-270.51343526 63.59288383 -267.92627725 60.79446296 -265 58 C-263.79631718 56.77915114 -262.59610119 55.55487923 -261.3984375 54.328125 C-253.93631674 46.74373513 -246.48786153 39.44849614 -238 33 C-237.38624512 32.53110352 -236.77249023 32.06220703 -236.14013672 31.57910156 C-231.45902612 28.0085519 -226.74208168 24.48907191 -222 21 C-221.05640625 20.30390625 -220.1128125 19.6078125 -219.140625 18.890625 C-196.9125426 2.89206888 -169.51672699 -6.95815799 -143 -13 C-142.06446289 -13.21317871 -141.12892578 -13.42635742 -140.16503906 -13.64599609 C-94.46353662 -23.43030757 -42.87005917 -18.26233568 0 0 Z M-161 -2 C-161.98742187 -1.69320313 -162.97484375 -1.38640625 -163.9921875 -1.0703125 C-183.64505863 5.23737293 -202.19493851 13.94564282 -219 26 C-219.88099365 26.62044189 -219.88099365 26.62044189 -220.77978516 27.25341797 C-228.60987089 32.77258991 -235.96940144 38.50911885 -242.92578125 45.1015625 C-245 47 -245 47 -247 48 C-247 48.66 -247 49.32 -247 50 C-247.59167969 50.26554687 -248.18335938 50.53109375 -248.79296875 50.8046875 C-255.33417756 54.34735988 -260.21632659 61.42996932 -265 67 C-265.87785156 67.98613281 -265.87785156 67.98613281 -266.7734375 68.9921875 C-267.32257813 69.61351563 -267.87171875 70.23484375 -268.4375 70.875 C-268.93121094 71.42929688 -269.42492187 71.98359375 -269.93359375 72.5546875 C-271.19790607 73.96886621 -271.19790607 73.96886621 -271 76 C-271.66 76 -272.32 76 -273 76 C-274.68884409 78.1551444 -276.26306282 80.31022534 -277.8125 82.5625 C-278.67317708 83.79296875 -279.53385417 85.0234375 -280.39453125 86.25390625 C-280.82306396 86.87273682 -281.25159668 87.49156738 -281.69311523 88.12915039 C-282.99100478 89.98712303 -284.31736499 91.82195807 -285.6484375 93.65625 C-288.89638699 98.19701699 -291.42660308 103.05255381 -294 108 C-294.3084082 108.58958496 -294.61681641 109.17916992 -294.93457031 109.78662109 C-312.08734321 142.73260015 -320.22224188 176.87186791 -320.13037109 213.98413086 C-320.12500157 216.5617458 -320.13035368 219.13918712 -320.13671875 221.71679688 C-320.1398983 230.53845852 -319.90372925 239.21374341 -319 248 C-313.72 245.36 -308.44 242.72 -303 240 C-303 239.34 -303 238.68 -303 238 C-303.763125 237.566875 -304.52625 237.13375 -305.3125 236.6875 C-308.77242164 234.51499106 -310.31839871 232.13059984 -311.55859375 228.25390625 C-313.34473377 219.13352756 -312.57074842 210.12234348 -308 202 C-306.70213607 200.30556653 -305.38089233 198.62748024 -304 197 C-304 196.01 -304 195.02 -304 194 C-307.3 194.33 -310.6 194.66 -314 195 C-315.70351039 189.6461102 -314.73160507 186.78655808 -312.25 181.75 C-310.4807145 178.36602676 -308.88065706 175.53358995 -306 173 C-306.33 172.34 -306.66 171.68 -307 171 C-308.65 171.33 -310.3 171.66 -312 172 C-313.41010083 169.74383866 -314.07094971 168.52218983 -313.70703125 165.84375 C-309.7638366 155.51223564 -302.41597677 147.31982922 -292.5625 142.375 C-290.71673246 141.56394369 -288.86338473 140.7697191 -287 140 C-285.660924 139.34494452 -284.32508907 138.68290642 -283 138 C-283.66 137.278125 -284.32 136.55625 -285 135.8125 C-287.1535853 132.78402067 -287.41176754 131.60296594 -287 128 C-281.371497 124.24766467 -275.61439289 124.17537096 -269 125 C-266.71230155 125.85511058 -264.77965979 126.82337276 -262.71875 128.125 C-260.72733447 129.30245536 -260.72733447 129.30245536 -257 129 C-256.62488281 128.26394531 -256.24976563 127.52789062 -255.86328125 126.76953125 C-252.18834073 119.76215097 -248.59537262 113.25515969 -241 110 C-237.1875 110.3125 -237.1875 110.3125 -234 111 C-233.90961901 116.15171623 -234.15318867 120.91913204 -235 126 C-232.43952255 124.9970693 -229.91492483 123.96106076 -227.4140625 122.81640625 C-215.48974165 117.45547209 -202.1221926 114.32482648 -189 116 C-185.65625 117.3671875 -185.65625 117.3671875 -183 119 C-181.75576501 122.31795996 -181.87093824 123.61281473 -183 127 C-181.88625 127.1959375 -180.7725 127.391875 -179.625 127.59375 C-164.66808969 130.44095715 -150.28406582 135.37979453 -140.0625 147.25 C-138.46660059 151.38056317 -138.2451816 155.63389358 -139 160 C-140.26171875 161.82421875 -140.26171875 161.82421875 -142 163 C-144.78535848 163.10118893 -147.23535757 162.49854208 -150 162 C-149.7834375 162.72445312 -149.566875 163.44890625 -149.34375 164.1953125 C-145.78172589 176.56345178 -145.78172589 176.56345178 -148.1875 181.375 C-150 183 -150 183 -152.25 183.625 C-155.91143527 182.79285562 -157.7766184 180.87250743 -160.44921875 178.3125 C-161.91583039 176.78465719 -161.91583039 176.78465719 -164 177 C-162.94685471 179.26831293 -161.96477715 181.04044105 -160.3125 182.9375 C-159 185 -159 185 -159.1875 187.625 C-160 190 -160 190 -162 192 C-162.32265049 195.21189938 -162.32265049 195.21189938 -162.25 198.9375 C-162.25515625 200.18402344 -162.2603125 201.43054688 -162.265625 202.71484375 C-162.16006295 205.96145468 -161.63094823 208.96461145 -160.9609375 212.140625 C-159.45724672 219.86103736 -160.10545334 227.60254664 -160.60546875 235.41210938 C-160.98901639 241.7013388 -160.98901639 241.7013388 -158.26049805 247.07641602 C-156.23869155 248.57514085 -154.19376813 249.77589463 -152 251 C-148.65281579 254.99502631 -147.63407546 259.83853806 -148 265 C-149.9375 267.5625 -149.9375 267.5625 -152 269 C-151.71125 269.680625 -151.4225 270.36125 -151.125 271.0625 C-147.10344828 281.56321839 -147.10344828 281.56321839 -149 287 C-151.55859375 288.16796875 -151.55859375 288.16796875 -154 289 C-153.83951172 290.485 -153.83951172 290.485 -153.67578125 292 C-152.36186095 305.69389231 -152.36186095 305.69389231 -156 312 C-158.375 314.0625 -158.375 314.0625 -161 315 C-163.8125 314.6875 -163.8125 314.6875 -166 314 C-170.16783789 320.69380025 -170.77627828 325.32159073 -169 333 C-164.18163492 349.72150562 -164.18163492 349.72150562 -153 362 C-151.62567678 362.2404201 -150.24201711 362.43064855 -148.85498047 362.58129883 C-146.94676514 362.78855591 -146.94676514 362.78855591 -145 363 C-144.68838928 361.75022621 -144.68838928 361.75022621 -144.3704834 360.47520447 C-142.37283906 352.46424647 -140.37394081 344.45360249 -138.37377167 336.4432745 C-137.34651648 332.32912451 -136.31967968 328.21487124 -135.29394531 324.1003418 C-135.09689499 323.31011816 -134.89984467 322.51989452 -134.69682312 321.70572472 C-134.29970453 320.11303216 -133.90274226 318.52030061 -133.50593567 316.92753029 C-132.51586066 312.95696586 -131.52021054 308.98793919 -130.51342773 305.02157593 C-128.74671493 298.05157866 -126.99893223 291.08355875 -125.41384125 284.06963634 C-124.75421056 281.16448504 -124.06967636 278.26550306 -123.3818512 275.36691475 C-123.06829259 274.01503718 -122.76690844 272.66026973 -122.47862244 271.30277824 C-122.08259944 269.44178849 -121.64098266 267.59067641 -121.19726562 265.74047852 C-120.96446899 264.69892105 -120.73167236 263.65736359 -120.49182129 262.58424377 C-118.55635134 259.2314788 -116.8357181 258.67254503 -113.22760582 257.54832935 C-109.66851004 256.67225125 -106.13203454 256.1168805 -102.49438477 255.68481445 C-101.67956351 255.58003375 -100.86474226 255.47525305 -100.02522945 255.36729717 C-97.33170794 255.02331932 -94.63667663 254.69325164 -91.94140625 254.36328125 C-90.02076924 254.1209462 -88.10023909 253.87776294 -86.17980957 253.63378906 C-81.03833866 252.9831046 -75.8954346 252.34449654 -70.7521553 251.70828629 C-65.42886654 251.04774949 -60.10698172 250.37608603 -54.78491211 249.70581055 C-43.16676475 248.2449507 -31.54660108 246.80062532 -19.92565918 245.36218262 C-17.11999998 245.01485542 -14.31438614 244.6671645 -11.50878906 244.31933594 C2.00585249 242.64407066 15.52082208 240.97149292 29.03881836 239.32348633 C30.91615662 239.09447632 30.91615662 239.09447632 32.8314209 238.86083984 C35.11990529 238.58202542 37.40847225 238.30388728 39.69714355 238.02661133 C41.63368472 237.79092491 43.56978106 237.5515342 45.50526428 237.30731201 C47.06481552 237.11519995 48.62631207 236.93766511 50.18992615 236.78204346 C54.28935687 236.34487572 54.28935687 236.34487572 57.23046875 233.3828125 C59.04361982 229.916612 60.75124428 226.46240148 62.3125 222.875 C62.84488281 221.67617187 63.37726563 220.47734375 63.92578125 219.2421875 C64.95660706 216.13096779 65.25504611 214.95045927 64 212 C63.67 212.99 63.34 213.98 63 215 C60.7265625 216.50390625 60.7265625 216.50390625 58 218 C57.24460937 218.48339844 56.48921875 218.96679688 55.7109375 219.46484375 C47.24148463 224.80428143 39.54770753 228.42844789 29.41796875 227.9453125 C26.03184533 228.02189687 23.23969665 229.02886078 20.10546875 230.24609375 C10.69347675 233.61625044 -0.97044312 232.00006428 -10 228 C-25.14816784 219.37070315 -35.7557697 205.41876547 -40.375 188.6328125 C-41.14958452 184.13053998 -41.42585308 179.75062519 -41.5 175.1875 C-41.51869141 174.39899658 -41.53738281 173.61049316 -41.55664062 172.7980957 C-41.48184777 165.97109062 -39.39558344 160.98944657 -35.140625 155.6796875 C-31.86489093 152.55285043 -28.59464698 149.61467362 -24.9375 146.9375 C-16.41828373 140.85108055 -16.41828373 140.85108055 -12.73046875 131.3828125 C-12.51848045 129.29979703 -12.33813921 127.2133487 -12.1875 125.125 C-11.99748671 123.04390201 -11.80353458 120.96315955 -11.60546875 118.8828125 C-11.47023804 117.38560669 -11.47023804 117.38560669 -11.33227539 115.8581543 C-10.93854613 112.47138836 -10.22253726 109.23544762 -9.42163086 105.92578125 C-8.87479142 103.42811506 -8.76151353 100.9890189 -8.6875 98.4375 C-8.14096443 91.59142284 -5.41206715 87.29146379 -0.5 82.625 C3.9655928 79.72236468 7.19396782 78.8012092 12.5 79.1875 C18.72509165 79.31766797 23.30275795 77.62005194 28.9921875 75.24609375 C41.02372411 70.26160001 54.8488084 70.43470814 67.046875 74.74609375 C87.80333675 83.5593533 102.40583958 101.5918176 111 122 C117.92415173 140.01818151 123.33692714 159.59791141 124 179 C124.03996094 180.08410156 124.07992188 181.16820312 124.12109375 182.28515625 C124.46199093 201.03450102 121.83055328 219.14637287 116.125 237 C110.18655935 256.05547822 105.50422089 274.10717206 110 294 C114.14530706 289.98841252 117.96861992 285.72690489 121.78515625 281.40234375 C123.57590401 279.4599983 125.36194961 277.81676554 127.375 276.125 C131.50631821 271.93677658 132.053624 266.61629089 133 261 C133.13535156 260.26185059 133.27070313 259.52370117 133.41015625 258.76318359 C140.84801063 216.9252527 136.23316081 173.78362486 122 134 C121.67386719 133.07058594 121.34773438 132.14117187 121.01171875 131.18359375 C118.34346155 124.04865049 114.61675346 117.43007479 110.9609375 110.76611328 C110.12349447 109.2269713 109.30965179 107.67503482 108.5 106.12109375 C102.71551048 95.09441061 95.62202751 84.88967416 88 75.0625 C87.53118408 74.45301514 87.06236816 73.84353027 86.5793457 73.21557617 C85.4356697 71.76986048 84.22362681 70.37870451 83 69 C82.34 69 81.68 69 81 69 C80.773125 68.46375 80.54625 67.9275 80.3125 67.375 C77.88031861 62.97390987 74.82953759 59.69128133 71 56.5 C68.75135757 54.62613131 67.16436539 53.10347346 65.375 50.875 C63.35076572 48.42461113 61.68096625 46.66404801 59 45 C58.34 45 57.68 45 57 45 C56.67 44.01 56.34 43.02 56 42 C54.54741867 40.5570087 54.54741867 40.5570087 52.7109375 39.21484375 C52.02402832 38.68898682 51.33711914 38.16312988 50.62939453 37.62133789 C49.88544434 37.06567139 49.14149414 36.51000488 48.375 35.9375 C47.61171387 35.36185303 46.84842773 34.78620605 46.06201172 34.19311523 C35.51562516 26.30897633 24.74258819 18.9944681 13 13 C11.92363281 12.43667969 10.84726562 11.87335937 9.73828125 11.29296875 C-3.10981356 4.68907679 -16.01804806 -0.27371749 -30 -4 C-30.89847656 -4.26554687 -31.79695313 -4.53109375 -32.72265625 -4.8046875 C-73.11257006 -16.62315399 -121.10157104 -14.69949994 -161 -2 Z M24 84 C24 84.99 24 85.98 24 87 C18.25 86.125 18.25 86.125 16 85 C11.35695813 84.43354889 7.87486883 84.57876686 3.625 86.625 C0.65656939 89.31072294 -0.6688136 91.2283052 -2 95 C-2.25144312 98.75073204 -2.25144312 98.75073204 -2 102 C-0.9275 102.33 0.145 102.66 1.25 103 C5.08637545 104.69640943 6.70057965 106.65975437 8.34375 110.484375 C10.00309051 116.8451803 9.92062657 123.4573171 7.6875 129.625 C4.08083624 134.7010453 4.08083624 134.7010453 0.0625 135.8125 C-3.18646577 136.01141627 -4.25063875 135.53797962 -7 134 C-7.17273438 134.54527344 -7.34546875 135.09054688 -7.5234375 135.65234375 C-10.85478147 144.59195945 -17.66616774 149.66631166 -25.25 155.0625 C-30.31139162 158.84057731 -34.11867083 162.57365612 -35.73046875 168.83984375 C-37.34425833 181.76613853 -33.40529111 195.3764449 -26 206 C-16.96366686 217.51755263 -8.09829725 224.02965326 6.56640625 226.41796875 C17.36587629 227.07625605 27.66198392 222.13720878 35.6171875 215.1796875 C36.40351563 214.46039063 37.18984375 213.74109375 38 213 C38.88945312 212.23945313 39.77890625 211.47890625 40.6953125 210.6953125 C47.28561807 205.10162578 47.28561807 205.10162578 52 198 C51.87754191 195.20438833 51.87754191 195.20438833 51 193 C52.41543415 192.80341192 53.83244031 192.61812454 55.25 192.4375 C56.43335938 192.28087891 56.43335938 192.28087891 57.640625 192.12109375 C60.00532874 191.99972651 61.7511037 192.30366743 64 193 C64 194.65 64 196.3 64 198 C62.94425781 198.30164063 62.94425781 198.30164063 61.8671875 198.609375 C58.04536455 200.4630112 55.87816629 203.07697144 53.125 206.25 C48.99306777 210.88028449 44.87017836 215.12599448 40 219 C42.94194251 220.34650135 42.94194251 220.34650135 45.49609375 218.953125 C56.14959879 212.78456166 64.79194272 205.01511331 72.6953125 195.55859375 C74 194 74 194 76 192 C78.125 192.375 78.125 192.375 80 193 C79.42584985 196.2698551 78.560298 197.61346225 76.125 199.8125 C72.09357553 204.27381571 71.8027981 209.28068428 70.85546875 215.05078125 C69.86813791 220.29202377 67.60753959 224.73983044 65.20703125 229.48828125 C63.85561961 231.83599327 63.85561961 231.83599327 64 234 C73.34227919 233.54466202 82.47676155 232.44987844 91.71362305 231.01635742 C96.19124492 230.33535509 100.45336051 229.82800541 105 230 C105.0825 230.61875 105.165 231.2375 105.25 231.875 C105.80115872 234.18581338 105.80115872 234.18581338 108.046875 235.1328125 C108.69140625 235.41898438 109.3359375 235.70515625 110 236 C112.93073814 227.08473933 115.76274385 218.33696794 117 209 C117.11085938 208.21496094 117.22171875 207.42992187 117.3359375 206.62109375 C121.20864945 173.17970273 115.09658649 132.8404455 94.9140625 105.13671875 C92.98541782 102.7169508 91.00914882 100.35298253 89 98 C88.06220703 96.7625 88.06220703 96.7625 87.10546875 95.5 C79.4505198 86.41063575 67.76511667 79.79769559 56 78 C46.6880003 77.31562412 31.17126904 76.82873096 24 84 Z M-3 109 C-4.85776765 112.13498292 -5.20140476 114.37471432 -5 118 C-4.67 117.34 -4.34 116.68 -4 116 C-1.69 116.33 0.62 116.66 3 117 C2.43260132 112.87026372 2.43260132 112.87026372 1 109 C-0.32 109 -1.64 109 -3 109 Z M3 117 C4 119 4 119 4 119 Z M-241 116 C-247.71265357 123.24598768 -251.16326065 129.27608578 -253 139 C-257.69071659 138.51942153 -260.10112761 137.45151415 -263.6875 134.4375 C-269.09793407 130.40232086 -273.43797901 130.21405452 -280 131 C-275.97562989 133.13615854 -271.76107368 134.52435005 -267.4609375 136 C-265 137 -265 137 -263 139 C-263 139.99 -263 140.98 -263 142 C-265.62795267 143.31397634 -268.17737697 143.34163115 -271.06933594 143.5949707 C-281.81788376 144.5568988 -291.09892016 146.09892016 -299 154 C-300.47405434 155.94851558 -301.73261486 157.90393996 -303 160 C-298.02647296 158.21601747 -294.04792957 155.44028861 -289.71875 152.4609375 C-286.82560879 150.90628978 -285.2258843 150.68442436 -282 151 C-281.0625 153.0625 -281.0625 153.0625 -281 156 C-283.97991319 160.04691436 -288.14291593 163.12249937 -291.9375 166.375 C-297.94037995 171.57204587 -304.22057348 177.40290083 -307 185 C-306.67 185.66 -306.34 186.32 -306 187 C-303.89441606 185.2308289 -301.79049842 183.4597399 -299.6875 181.6875 C-298.79514648 180.93823242 -298.79514648 180.93823242 -297.88476562 180.17382812 C-297.30791016 179.68720703 -296.73105469 179.20058594 -296.13671875 178.69921875 C-295.60780029 178.25408936 -295.07888184 177.80895996 -294.53393555 177.3503418 C-292.9470006 176.00493193 -292.9470006 176.00493193 -291.49145508 174.33129883 C-290 173 -290 173 -287 173 C-287.28809317 176.65092613 -287.58751594 178.53917188 -290.06640625 181.30859375 C-290.89011719 182.01113281 -291.71382813 182.71367187 -292.5625 183.4375 C-295.8122634 186.3231785 -295.8122634 186.3231785 -297.59375 190.1328125 C-297.61492325 192.24499639 -297.61492325 192.24499639 -297 195 C-296.30132812 195.13277344 -295.60265625 195.26554687 -294.8828125 195.40234375 C-293.97273438 195.57894531 -293.06265625 195.75554687 -292.125 195.9375 C-291.22007812 196.11152344 -290.31515625 196.28554687 -289.3828125 196.46484375 C-287 197 -287 197 -285 198 C-284.01 196.68 -283.02 195.36 -282 194 C-280.515 194.495 -280.515 194.495 -279 195 C-278.34 198.3 -277.68 201.6 -277 205 C-275.35 205 -273.7 205 -272 205 C-271.34 207.31 -270.68 209.62 -270 212 C-269.67 212 -269.34 212 -269 212 C-268.96132813 210.60201172 -268.96132813 210.60201172 -268.921875 209.17578125 C-268.4857209 199.37222661 -267.58978525 189.38467787 -262 181 C-260.68 181 -259.36 181 -258 181 C-258 181.66 -258 182.32 -258 183 C-257.34 183 -256.68 183 -256 183 C-255.72027344 182.03320312 -255.44054687 181.06640625 -255.15234375 180.0703125 C-252.59282426 171.62335477 -249.54887738 164.98851055 -244 158 C-243.34 157.01 -242.68 156.02 -242 155 C-240.68 155 -239.36 155 -238 155 C-237.45190181 159.81795986 -239.09301404 162.09123115 -241.875 165.9375 C-244.72539448 169.89638122 -246.66708822 173.29271683 -248 178 C-244.08190287 178.45347034 -244.08190287 178.45347034 -242.2109375 176.33984375 C-238.16355427 171.04379974 -234.29965135 165.64325319 -230.5625 160.125 C-230.12534668 159.48296631 -229.68819336 158.84093262 -229.23779297 158.17944336 C-227.22031303 155.13965116 -225.74543805 152.56547634 -225 149 C-222.8125 148.1875 -222.8125 148.1875 -220 148 C-216.4409164 151.18230765 -213.51119381 154.75762924 -210.5625 158.5 C-207.30357188 162.53823702 -204.15733506 165.90864829 -200 169 C-201.46237716 161.97345607 -203.16102326 155.93961802 -207.01171875 149.83984375 C-208 148 -208 148 -208 145 C-204.57056481 143.81228277 -202.62215325 144.19773777 -199.25 145.4375 C-198.45078125 145.72496094 -197.6515625 146.01242188 -196.828125 146.30859375 C-196.22484375 146.53675781 -195.6215625 146.76492187 -195 147 C-194.34 146.34 -193.68 145.68 -193 145 C-188.50430845 145.26629532 -185.5230979 147.37893302 -181.875 149.875 C-180.84117187 150.57367188 -179.80734375 151.27234375 -178.7421875 151.9921875 C-176 154 -176 154 -174.2578125 155.7578125 C-173.05746281 157.23422455 -173.05746281 157.23422455 -171 157 C-170.67 157.99 -170.34 158.98 -170 160 C-168.3704899 161.57485787 -168.3704899 161.57485787 -166.375 163.125 C-162.41772718 166.44882447 -159.45149337 170.08966389 -156.4453125 174.27734375 C-155.96835938 174.84582031 -155.49140625 175.41429687 -155 176 C-154.34 176 -153.68 176 -153 176 C-154.59657717 166.8559671 -157.4980313 159.30617329 -164.953125 153.41796875 C-168.83838384 150.7264631 -172.89101094 148.33145858 -177 146 C-176.67 144.68 -176.34 143.36 -176 142 C-172.08015394 142.57193483 -169.4469169 143.74175624 -166.125 145.875 C-163.23878767 147.67086545 -160.46333805 149.34474978 -157.3125 150.625 C-154.74771423 151.68962805 -152.55929168 152.78687405 -150.1875 154.1875 C-147.32136747 156.16476741 -147.32136747 156.16476741 -145 156 C-145.21116841 151.77148143 -145.41432325 149.62041211 -148.37109375 146.48828125 C-162.75975382 136.27874792 -177.3213818 132.37416513 -195 134 C-198.00838819 135.04203591 -200.26312666 136.33641032 -203 138 C-204.485 137.505 -204.485 137.505 -206 137 C-206 135.35 -206 133.7 -206 132 C-205.13117188 131.74347656 -204.26234375 131.48695313 -203.3671875 131.22265625 C-199.92417574 129.97246753 -197.19174934 128.42797823 -194.125 126.4375 C-193.15820312 125.81746094 -192.19140625 125.19742188 -191.1953125 124.55859375 C-190.47085938 124.04425781 -189.74640625 123.52992188 -189 123 C-189 122.67 -189 122.34 -189 122 C-206.14320826 121.11328233 -221.96436296 124.40020111 -236 134.875 C-239 137 -239 137 -243 137 C-243.35417307 131.5693463 -242.37472709 127.45756311 -240.55859375 122.33203125 C-239.95139481 119.79708185 -240.15520227 118.43368882 -241 116 Z M-197 154 C-196.65775391 155.17755859 -196.65775391 155.17755859 -196.30859375 156.37890625 C-193.31163492 167.33191723 -193.31163492 167.33191723 -195 173 C-196.25 175 -196.25 175 -198 176 C-201.397448 175.73865785 -204.04094682 174.64391844 -207 173 C-206.938125 173.928125 -206.87625 174.85625 -206.8125 175.8125 C-207 179 -207 179 -208.03125 180.54296875 C-210.9529897 182.70528801 -214.23829508 183.51698644 -217.6875 184.5 C-219.1360213 184.92764479 -220.58394763 185.35731042 -222.03125 185.7890625 C-223.06572266 186.0969873 -223.06572266 186.0969873 -224.12109375 186.41113281 C-226.36340695 187.11389521 -228.52107462 187.96676782 -230.6875 188.875 C-234.09416993 190.03198224 -235.73074671 190.53847213 -239 189 C-240.3125 186.4375 -240.3125 186.4375 -241 184 C-243.97 184.33 -246.94 184.66 -250 185 C-251.2512898 190.17951925 -251.30002426 195.37152794 -251.4296875 200.67382812 C-251.63269245 205.43175661 -252.31993325 208.90703754 -255 213 C-258.18944514 213.97636076 -259.97172501 214.51413749 -263 213 C-264.05040651 220.00271004 -264.46780825 227.01742644 -263 234 C-261.57069373 235.83912685 -261.57069373 235.83912685 -260 237 C-260 236.34 -260 235.68 -260 235 C-254.8930094 236.90260434 -251.52788528 238.66574094 -248 243 C-246.6875 246.3125 -246.6875 246.3125 -246 249 C-245.2575 248.62875 -244.515 248.2575 -243.75 247.875 C-241 247 -241 247 -238.875 247.625 C-237 249 -237 249 -236.390625 251.3828125 C-236.34421875 252.28773438 -236.2978125 253.19265625 -236.25 254.125 C-236.19328125 255.03507812 -236.1365625 255.94515625 -236.078125 256.8828125 C-236.05234375 257.58148438 -236.0265625 258.28015625 -236 259 C-235.41734375 258.63648438 -234.8346875 258.27296875 -234.234375 257.8984375 C-229.41671985 254.944215 -224.69301822 252.42651873 -219.5 250.1875 C-215.43696942 248.31828496 -215.43696942 248.31828496 -212.9375 244.83203125 C-212.46474115 242.51406845 -212.46474115 242.51406845 -212.2890625 240.19140625 C-211.83357651 236.73833 -210.09260281 234.72038366 -208 232 C-206.35 232.33 -204.7 232.66 -203 233 C-204.20381448 235.49361571 -205.45428722 237.68143083 -207 240 C-207.8358489 244.07476341 -207.72892123 247.62723668 -205.76171875 251.33203125 C-202.65981817 255.66649414 -202.65981817 255.66649414 -198 258 C-190.42068855 258.64610524 -182.58172576 258.46781996 -176.296875 253.7109375 C-173.69288082 251.03540502 -173.00504277 249.27735221 -172.9375 245.5625 C-175.79343132 235.98673029 -182.10650151 229.87180431 -190.5625 224.75 C-191.366875 224.1725 -192.17125 223.595 -193 223 C-193 221.68 -193 220.36 -193 219 C-192.01 218.67 -191.02 218.34 -190 218 C-189.96261719 217.13117188 -189.92523438 216.26234375 -189.88671875 215.3671875 C-189.25140562 204.23052209 -189.25140562 204.23052209 -186 199 C-186 198.34 -186 197.68 -186 197 C-181.66217778 194.76536431 -178.70996826 194.82250793 -174 196 C-171.0625 198.0625 -171.0625 198.0625 -169 200 C-169 197.36 -169 194.72 -169 192 C-169.78503906 191.70867187 -170.57007813 191.41734375 -171.37890625 191.1171875 C-183.99456878 186.19475721 -183.99456878 186.19475721 -188 181 C-188.5625 178.25 -188.5625 178.25 -188 176 C-185.4345406 173.4345406 -183.52313332 173.45953913 -180 173 C-183.40762662 166.02985465 -188.44081616 160.36428758 -194 155 C-194.99 154.67 -195.98 154.34 -197 154 Z M-221 156 C-222.68920646 158.39527688 -224.32539718 160.80358311 -225.9375 163.25 C-226.39318359 163.93191406 -226.84886719 164.61382812 -227.31835938 165.31640625 C-229.41502633 168.47829053 -231.35044754 171.57723764 -233 175 C-232.13375 174.71125 -231.2675 174.4225 -230.375 174.125 C-229.26125 173.75375 -228.1475 173.3825 -227 173 C-226.05125 172.62875 -225.1025 172.2575 -224.125 171.875 C-218.71310504 170.35966941 -213.46291753 170.63427062 -208 172 C-208.36351562 171.5153125 -208.72703125 171.030625 -209.1015625 170.53125 C-209.60429687 169.8609375 -210.10703125 169.190625 -210.625 168.5 C-211.16769531 167.778125 -211.71039063 167.05625 -212.26953125 166.3125 C-213.41944876 164.77581566 -214.5627431 163.23415191 -215.69921875 161.6875 C-216.23160156 160.965625 -216.76398438 160.24375 -217.3125 159.5 C-217.80363281 158.8296875 -218.29476562 158.159375 -218.80078125 157.46875 C-219.39439453 156.74171875 -219.39439453 156.74171875 -220 156 C-220.33 156 -220.66 156 -221 156 Z M-180 160 C-178.63629701 162.99220268 -177.05091917 165.29026529 -174.875 167.75 C-174.33617187 168.36359375 -173.79734375 168.9771875 -173.2421875 169.609375 C-172.83226562 170.06828125 -172.42234375 170.5271875 -172 171 C-172 167.43770549 -172.76109009 166.58890321 -174.875 163.8125 C-175.67550781 162.73935547 -175.67550781 162.73935547 -176.4921875 161.64453125 C-176.98976562 161.10183594 -177.48734375 160.55914062 -178 160 C-178.66 160 -179.32 160 -180 160 Z M-179 180 C-176.64531545 182.72647685 -174.4591583 183.98756342 -171 185 C-168.75759218 184.71260075 -168.75759218 184.71260075 -167 184 C-172.54702838 180.38406443 -172.54702838 180.38406443 -179 180 Z M-258 185 C-260.5747756 190.37344474 -263.17078833 196.06257174 -261.38671875 202.0625 C-260.67112639 203.74465077 -259.84443123 205.37869203 -259 207 C-258.67 207 -258.34 207 -258 207 C-257.67 199.74 -257.34 192.48 -257 185 C-257.33 185 -257.66 185 -258 185 Z M-181.6875 202.4375 C-183.62888504 206.22782318 -183.24113824 209.82027057 -183 214 C-182.01 213.34 -181.02 212.68 -180 212 C-177.67612053 211.60612212 -175.34206251 211.26513915 -173 211 C-173.28875 209.72125 -173.5775 208.4425 -173.875 207.125 C-174.11863281 206.04605469 -174.11863281 206.04605469 -174.3671875 204.9453125 C-174.90474428 202.79280036 -174.90474428 202.79280036 -177 201 C-179.9888398 200.67576677 -179.9888398 200.67576677 -181.6875 202.4375 Z M-302.5 204.125 C-305.27327263 209.4404392 -306.30977118 214.06797155 -306.375 220.0625 C-306.40335937 221.24972656 -306.43171875 222.43695313 -306.4609375 223.66015625 C-305.90841832 227.66357911 -304.91927236 229.24041433 -302 232 C-297.68009475 233.85439835 -293.50801438 234.54545201 -289.0625 232.9375 C-284.95988327 229.08352671 -283.64498027 225.54683028 -283 220 C-287.82442184 221.26946514 -287.82442184 221.26946514 -291 225 C-292.32 224.67 -293.64 224.34 -295 224 C-294.6875 221.625 -294.6875 221.625 -294 219 C-293.01 218.34 -292.02 217.68 -291 217 C-291.33 216.01 -291.66 215.02 -292 214 C-296.455 214.495 -296.455 214.495 -301 215 C-300.625 212.0625 -300.625 212.0625 -300 209 C-296.92805092 207.46402546 -294.39755707 207.7734962 -291 208 C-287.5625 209.5 -287.5625 209.5 -285 211 C-285.30363661 206.69851109 -285.30363661 206.69851109 -287.734375 203.33203125 C-292.46057212 200.55335329 -298.32087605 200.57274464 -302.5 204.125 Z M-167 218 C-168.57405894 220.2716011 -170.04273284 222.60271814 -171.52734375 224.93359375 C-173 227 -173 227 -175 228 C-173.61964507 230.85059343 -172.10703513 233.55880904 -170.4375 236.25 C-170.00308594 236.95640625 -169.56867188 237.6628125 -169.12109375 238.390625 C-168.75113281 238.92171875 -168.38117188 239.4528125 -168 240 C-167.67 240 -167.34 240 -167 240 C-165.21459645 232.37145754 -164.88967504 225.75727034 -166 218 C-166.33 218 -166.66 218 -167 218 Z M-178 220 C-177 222 -177 222 -177 222 Z M-276 221 C-276.23074219 222.2065625 -276.46148437 223.413125 -276.69921875 224.65625 C-279.86753716 240.44185303 -279.86753716 240.44185303 -285 247 C-284.360625 247.226875 -283.72125 247.45375 -283.0625 247.6875 C-281 249 -281 249 -280.16015625 251.31640625 C-279.98345883 254.27716548 -280.44835317 256.15470024 -281.4375 258.9375 C-282.69903343 262.77370847 -283.32206579 265.92050002 -283 270 C-282.4121875 269.0409375 -282.4121875 269.0409375 -281.8125 268.0625 C-280 266 -280 266 -275 265 C-274.67 274.24 -274.34 283.48 -274 293 C-272 289.23570226 -272 289.23570226 -271 286 C-269.35 286.33 -267.7 286.66 -266 287 C-265.87939209 287.89307861 -265.87939209 287.89307861 -265.75634766 288.80419922 C-265.38791016 291.49573761 -265.00662173 294.18530069 -264.625 296.875 C-264.49867188 297.81214844 -264.37234375 298.74929688 -264.2421875 299.71484375 C-264.11328125 300.61074219 -263.984375 301.50664062 -263.8515625 302.4296875 C-263.73635254 303.25710449 -263.62114258 304.08452148 -263.50244141 304.93701172 C-263.13868236 307.20778385 -263.13868236 307.20778385 -261 309 C-261 306.03 -261 303.06 -261 300 C-259.02 300 -257.04 300 -255 300 C-254.82984375 300.54527344 -254.6596875 301.09054687 -254.484375 301.65234375 C-252.67459186 307.28384978 -250.49654622 312.63939569 -248 318 C-247.67 317.34 -247.34 316.68 -247 316 C-242.04303419 317.23924145 -239.88341534 318.78577758 -237 323 C-237 320.69 -237 318.38 -237 316 C-235.02 316 -233.04 316 -231 316 C-230.73445313 316.70511719 -230.46890625 317.41023438 -230.1953125 318.13671875 C-228.93501033 321.15567786 -227.46042006 323.95185076 -225.875 326.8125 C-225.33617187 327.78832031 -224.79734375 328.76414062 -224.2421875 329.76953125 C-223.83226562 330.50558594 -223.42234375 331.24164063 -223 332 C-222.67 332 -222.34 332 -222 332 C-221.67 327.71 -221.34 323.42 -221 319 C-219.35 319 -217.7 319 -216 319 C-214.59375 320.42578125 -214.59375 320.42578125 -213.5 322.3125 C-211.4047992 325.56730878 -209.61591616 327.3823533 -206 329 C-205.01 329 -204.02 329 -203 329 C-202.49632243 327.54293274 -201.99717444 326.08429904 -201.5 324.625 C-201.2215625 323.81289063 -200.943125 323.00078125 -200.65625 322.1640625 C-199.90326695 320.05790758 -199.90326695 320.05790758 -200 318 C-197.3125 317.9375 -197.3125 317.9375 -194 319 C-191.94140642 321.81926253 -190.4472097 324.83022655 -189 328 C-186.26645763 325.26645763 -186.27420997 322.72214787 -185.66015625 318.99609375 C-185.33337891 318.00802734 -185.33337891 318.00802734 -185 317 C-184.01 316.67 -183.02 316.34 -182 316 C-180 317 -180 317 -178.875 320.0625 C-178.58625 321.031875 -178.2975 322.00125 -178 323 C-175.31088504 319.787133 -173.93750805 316.60839534 -172.5 312.6875 C-170.77695774 308.06495762 -168.99349388 303.51159141 -167 299 C-165.35 299.33 -163.7 299.66 -162 300 C-161.505 303.465 -161.505 303.465 -161 307 C-158.64398471 305.07857558 -158.64398471 305.07857558 -158.75 301.6875 C-158.83328117 296.65361616 -159.86843844 291.7790761 -160.85546875 286.85546875 C-161 284 -161 284 -159.73828125 282.17578125 C-158 281 -158 281 -155 280 C-155.41207985 277.11544106 -155.85716381 276.12985108 -158.0625 274.125 C-160.63454151 271.30405125 -160 269.72030015 -160 266 C-161.74409751 263.1099784 -161.74409751 263.1099784 -164 261 C-164.66 261 -165.32 261 -166 261 C-166 259.02 -166 257.04 -166 255 C-164.02 254.34 -162.04 253.68 -160 253 C-161.80961577 251.37168238 -161.80961577 251.37168238 -164 250 C-167.418736 251.13957867 -168.02532307 252.04429724 -170.1875 254.8125 C-175.03226134 260.51582664 -180.49643473 263.37470289 -188 264 C-194.09388193 264.39959881 -199.53910866 263.95925397 -205 261 C-206.69908072 259.19889595 -208.08362834 257.41223764 -209.41796875 255.328125 C-211.02222873 253.67444061 -211.02222873 253.67444061 -213.86328125 254.15234375 C-223.18754092 256.6721001 -230.23375476 262.559188 -237.22851562 268.94848633 C-240.11631412 271.55635361 -242.17016557 273.2735362 -246 274 C-246.97885594 271.3897175 -247.28211371 269.66316777 -246.17578125 267.0625 C-245.43182393 265.68422118 -244.68178079 264.3092105 -243.92578125 262.9375 C-242.77735724 260.53404721 -242.67144047 258.62847627 -243 256 C-243.763125 256.0825 -244.52625 256.165 -245.3125 256.25 C-248 256 -248 256 -249.625 254.4375 C-251.35471248 251.37119151 -252.68139132 248.26512625 -254 245 C-254.66 245 -255.32 245 -256 245 C-257.6446674 247.46326712 -257.6446674 247.46326712 -259 250 C-260.65 249.67 -262.3 249.34 -264 249 C-263.7525 248.0925 -263.505 247.185 -263.25 246.25 C-262.61174675 242.94920903 -262.61174675 242.94920903 -264.8125 240.875 C-265.534375 240.25625 -266.25625 239.6375 -267 239 C-268.5602957 236.53637521 -269.00891647 234.92866823 -269.375 232 C-270.12207932 228.41401928 -271.34037081 227.41784472 -274 225 C-274.70138555 223.68459872 -275.37405922 222.35293029 -276 221 Z M83.99462891 238.05053711 C83.12573721 238.16305533 82.25684551 238.27557356 81.36162376 238.39150143 C78.48263682 238.76542492 75.6046359 239.14645808 72.7265625 239.52734375 C70.67479075 239.79488012 68.62294987 240.0618868 66.57104492 240.32839966 C62.19799691 240.89714872 57.82532815 241.4686969 53.45294189 242.04251099 C41.9702904 243.54893405 30.48514644 245.0361769 19 246.5234375 C17.84892384 246.67263956 16.69784767 246.82184162 15.51189041 246.97556496 C-9.00418735 250.15166327 -33.53847164 253.1643524 -58.08349609 256.10717773 C-60.83433042 256.43716645 -63.58513881 256.76737063 -66.3359375 257.09765625 C-67.63018646 257.2529631 -68.92443542 257.40826996 -70.25790405 257.56828308 C-84.51687516 259.28852329 -98.75919321 261.13605475 -113 263 C-115.26930924 268.75117851 -117.00241039 274.4532424 -118.47680664 280.453125 C-118.70502106 281.36539856 -118.93323547 282.27767212 -119.16836548 283.21759033 C-119.92009818 286.22729932 -120.66513684 289.23862284 -121.41015625 292.25 C-121.94200187 294.38486944 -122.47427246 296.51963305 -123.00694275 298.65429688 C-124.41284378 304.29316014 -125.81311494 309.93340655 -127.2121582 315.57397461 C-128.5984887 321.15949739 -129.98980564 326.74377701 -131.38085938 332.328125 C-133.28721698 339.98287162 -135.19179754 347.63805586 -137.09399033 355.2938385 C-139.35973039 364.41240427 -141.62992384 373.52982201 -143.91113281 382.64453125 C-144.14012488 383.55955414 -144.36911695 384.47457703 -144.60504818 385.41732788 C-145.66379067 389.64695271 -146.72341114 393.87635544 -147.78419495 398.10546875 C-150.94453866 410.71603126 -154.01176271 423.34743862 -157 436 C-154.35261084 437.4606285 -153.10551666 438 -150 438 C-147.60088922 428.20378136 -145.20374674 418.4070829 -142.80848885 408.60992146 C-141.62983928 403.78936625 -140.45046776 398.96898979 -139.26956177 394.14898682 C-134.16977722 373.33225747 -129.09678441 352.51051438 -124.17864037 331.65001869 C-123.52276474 328.87010536 -122.86505129 326.09063393 -122.20661926 323.31132507 C-121.99372851 322.41255929 -121.78083776 321.51379351 -121.56149578 320.5877924 C-121.13845174 318.8019357 -120.71534222 317.01609452 -120.2921648 315.23026943 C-119.05966739 310.02326331 -117.84038649 304.81336842 -116.63014412 299.60114765 C-115.87690802 296.37026051 -115.11197795 293.14222528 -114.3438797 289.91484261 C-113.99149896 288.42285968 -113.64417768 286.92967126 -113.30233002 285.43523979 C-112.83637308 283.40055838 -112.35291557 281.37081558 -111.86499023 279.34130859 C-111.46702492 277.63858292 -111.46702492 277.63858292 -111.0610199 275.90145874 C-109.8655074 272.63221732 -108.74500537 271.11851794 -106 269 C-103.83180237 268.24891663 -103.83180237 268.24891663 -101.45141602 267.89086914 C-100.54849319 267.74693726 -99.64557037 267.60300537 -98.71528625 267.45471191 C-97.73803085 267.31625854 -96.76077545 267.17780518 -95.75390625 267.03515625 C-94.72964035 266.87696411 -93.70537445 266.71877197 -92.65007019 266.55578613 C-89.28981711 266.04146507 -85.92653087 265.55145109 -82.5625 265.0625 C-80.20524709 264.70864227 -77.84815171 264.3537336 -75.49121094 263.99780273 C-68.66436931 262.97343336 -61.83304005 261.98205258 -55 261 C-54.14952087 260.87689453 -53.29904175 260.75378906 -52.42279053 260.62695312 C-40.9632536 258.96870677 -29.48542052 257.46691516 -18 256 C-16.17187775 255.76603516 -16.17187775 255.76603516 -14.30682373 255.52734375 C-3.93444618 254.1999786 6.43879961 252.8794844 16.8125 251.5625 C17.96672518 251.41593964 17.96672518 251.41593964 19.14426804 251.26641846 C35.48749244 249.19176578 51.83184825 247.13088583 68.1875 245.15625 C70.45208375 244.88091529 72.71665143 244.60544831 74.98120117 244.32983398 C79.10790048 243.82761651 83.23571159 243.33649608 87.36450195 242.85180664 C89.17664744 242.63210481 90.98874402 242.41199916 92.80078125 242.19140625 C93.6148645 242.09907715 94.42894775 242.00674805 95.2677002 241.91162109 C99.58614477 241.4824314 99.58614477 241.4824314 103 239 C101.05032477 236.60478906 101.05032477 236.60478906 97.43783569 236.80934143 C92.91566779 236.92662058 88.47441582 237.44857755 83.99462891 238.05053711 Z M-317 255 C-317.14688973 261.75692748 -313.9331575 264.64963496 -309.41796875 269.39453125 C-298.72566825 280.91596006 -295.25583379 294.03458462 -291.57543945 308.97753906 C-287.67170601 324.73321834 -280.87244233 341.41169427 -267 351 C-263.91172547 352.81268288 -262.28718282 353.29388776 -258.79296875 352.49609375 C-250.8125238 349.6935123 -242.27465176 344.63538053 -237.25 337.6875 C-235.6215131 334.99076184 -235.6215131 334.99076184 -237 332 C-239.68837884 330.58113339 -241.42412604 329.94814405 -244.47265625 330.22265625 C-247 330 -247 330 -248.73046875 328.1015625 C-249.21128906 327.28429687 -249.69210938 326.46703125 -250.1875 325.625 C-252.30976468 322.09538427 -252.30976468 322.09538427 -255 319 C-255.391875 319.495 -255.78375 319.99 -256.1875 320.5 C-258.55091715 322.45593143 -260.01435003 322.24207973 -263 322 C-263.28230469 321.14019531 -263.56460938 320.28039062 -263.85546875 319.39453125 C-264.95482139 316.13399391 -266.08371377 312.9015565 -267.3125 309.6875 C-267.70050781 308.63949219 -268.08851563 307.59148437 -268.48828125 306.51171875 C-269.76055292 303.75597486 -269.76055292 303.75597486 -272.5625 303.25 C-273.366875 303.1675 -274.17125 303.085 -275 303 C-280.06139665 297.93860335 -280.42866696 290.76578598 -281 284 C-282.134375 283.731875 -283.26875 283.46375 -284.4375 283.1875 C-285.613125 282.795625 -286.78875 282.40375 -288 282 C-288.92188461 279.23434618 -289.11785222 277.61716298 -289.09765625 274.76953125 C-289.09443359 273.96708984 -289.09121094 273.16464844 -289.08789062 272.33789062 C-289.07951172 271.50451172 -289.07113281 270.67113281 -289.0625 269.8125 C-289.05798828 268.96751953 -289.05347656 268.12253906 -289.04882812 267.25195312 C-289.03705403 265.16793845 -289.0191189 263.08396023 -289 261 C-290.134375 261.185625 -291.26875 261.37125 -292.4375 261.5625 C-294.2009375 261.7790625 -294.2009375 261.7790625 -296 262 C-297 261 -297 261 -297.375 258.0625 C-297.35307482 252.80045745 -294.5190872 248.47137977 -292 244 C-301.53292167 244 -309.7620882 249.2993438 -317 255 Z M95.98730469 247.68334961 C94.13981628 247.9106073 94.13981628 247.9106073 92.25500488 248.14245605 C90.89395693 248.31238131 89.53291379 248.48234514 88.171875 248.65234375 C86.73924297 248.82943286 85.30658441 249.00630749 83.87390137 249.1829834 C79.16551778 249.76448677 74.45774991 250.35089238 69.75 250.9375 C68.11096672 251.1414876 66.4719286 251.34543634 64.83288574 251.54934692 C64.01249691 251.6514148 63.19210808 251.75348269 62.34685898 251.85864353 C60.67137623 252.06708311 58.99589252 252.27551494 57.32040787 252.48393917 C56.06349451 252.64030015 56.06349451 252.64030015 54.78118896 252.79981995 C53.93850212 252.90464754 53.09581528 253.00947514 52.22759247 253.11747932 C50.50498339 253.33186948 48.78239343 253.54641335 47.05982208 253.76110649 C35.5636497 255.193927 24.0646039 256.5994097 12.56163788 257.97657394 C-26.48257155 262.65810391 -65.25632062 268.24949107 -104 275 C-107.38550412 286.84367592 -110.46389232 298.73121355 -113.29730797 310.71855545 C-113.97361105 313.5797578 -114.65419296 316.43991671 -115.33564758 319.29989624 C-116.54617434 324.38330779 -117.75310236 329.46756546 -118.95880127 334.55212402 C-121.09719963 343.56961325 -123.2398961 352.58607527 -125.38671875 361.6015625 C-125.73603266 363.06973797 -125.73603266 363.06973797 -126.09240341 364.56757355 C-129.88897248 380.51214729 -133.81018364 396.42306227 -137.84416199 412.30923462 C-141.66783158 425.97771707 -141.66783158 425.97771707 -143 440 C-111.816098 448.42808162 -69.76848753 449.28701655 -39 439 C-38.13946081 434.67785038 -37.28516227 430.35452729 -36.43652344 426.0300293 C-36.14720406 424.56029333 -35.85620804 423.09088635 -35.56347656 421.62182617 C-35.1420242 419.50524653 -34.72669614 417.38754128 -34.3125 415.26953125 C-34.06113281 413.99698486 -33.80976563 412.72443848 -33.55078125 411.41333008 C-33.08382177 408.51946459 -32.88294314 405.91910547 -33 403 C-34.37671875 403.2165625 -34.37671875 403.2165625 -35.78125 403.4375 C-52.93548387 406.03225806 -52.93548387 406.03225806 -57 404 C-56.4551096 396.10034636 -54.94537957 388.57615948 -53.1640625 380.87109375 C-52.88404388 379.64141373 -52.60402527 378.4117337 -52.31552124 377.14479065 C-51.72499324 374.55812367 -51.1321528 371.97213005 -50.53515625 369.38696289 C-49.77599262 366.0985091 -49.02627238 362.80799066 -48.27955055 359.51669216 C-47.55817838 356.34209909 -46.82962594 353.1691578 -46.1015625 349.99609375 C-45.83582428 348.82711044 -45.57008606 347.65812714 -45.29629517 346.45372009 C-43.83848789 340.16289953 -42.15627721 334.08795648 -40 328 C-13.37119031 323.09193018 13.27333241 318.34596243 40 314 C45.84663483 320.85813084 45.84663483 320.85813084 46.17138672 325.39355469 C45.76630467 328.12063462 45.14943624 330.71117755 44.4375 333.375 C43.93038628 335.54773325 43.42535566 337.72095325 42.921875 339.89453125 C42.47231445 341.75585693 42.47231445 341.75585693 42.01367188 343.65478516 C40.09013139 351.7577591 38.48584723 359.93494111 36.80276489 368.09039307 C35.80987482 372.88666132 34.80148894 377.67965471 33.79296875 382.47265625 C32.90544922 386.69369141 32.90544922 386.69369141 32 391 C23.75 392.65 15.5 394.3 7 396 C6.01 405.57 5.02 415.14 4 425 C23.00316757 415.74204657 39.79752295 404.54158245 56 391 C56.92683594 390.29617188 57.85367188 389.59234375 58.80859375 388.8671875 C59.89333984 387.94292969 59.89333984 387.94292969 61 387 C61 386.34 61 385.68 61 385 C61.54785156 384.7628125 62.09570312 384.525625 62.66015625 384.28125 C69.03418164 380.79096564 74.65560015 375.39150978 77.34472656 368.60766602 C77.69162137 367.30719008 78.01794038 366.00112346 78.328125 364.69140625 C78.62005989 363.55844872 78.62005989 363.55844872 78.91789246 362.40260315 C79.63139708 359.60631254 80.31484074 356.8033689 81 354 C81.61750988 351.53407649 82.23616469 349.06843952 82.85571289 346.60302734 C84.84988097 338.64251913 86.80560554 330.67272513 88.75756836 322.70178223 C89.6688272 318.98358157 90.58367006 315.26626298 91.49804688 311.54882812 C93.12583242 304.92905083 94.74624304 298.30749591 96.36313057 291.68504906 C97.48227207 287.10525533 98.61054381 282.52780732 99.74488163 277.95175457 C100.50095204 274.89806638 101.25241632 271.84325569 102.00304222 268.78822517 C102.35945606 267.34219681 102.71787651 265.89666137 103.07842445 264.45165825 C103.57607275 262.45610026 104.06653717 260.45890224 104.55541992 258.46118164 C104.9752137 256.7650045 104.9752137 256.7650045 105.40348816 255.03456116 C105.9495275 252.25676253 106.12143177 249.81928155 106 247 C102.5517983 247 99.40008847 247.26029037 95.98730469 247.68334961 Z M-160 253 C-159.01 254.98 -158.02 256.96 -157 259 C-156.34 259 -155.68 259 -155 259 C-155.78130071 256.50447516 -155.78130071 256.50447516 -157 254 C-157.99 253.67 -158.98 253.34 -160 253 Z M-311 281 C-310.43020667 286.84623571 -308.75955145 291.75975374 -306.5625 297.1875 C-306.24990234 297.98091797 -305.93730469 298.77433594 -305.61523438 299.59179688 C-304.20519783 303.14222715 -302.74346723 306.59826364 -301 310 C-298.45368588 304.4507913 -299.33631414 301.0313166 -301.125 295.5 C-301.33898437 294.76652344 -301.55296875 294.03304688 -301.7734375 293.27734375 C-303.21112908 288.60484612 -304.90218221 284.80898996 -308 281 C-308.99 281 -309.98 281 -311 281 Z M124 288 C122.56041153 289.58143471 121.12341355 291.16522779 119.6875 292.75 C118.88699219 293.63171875 118.08648437 294.5134375 117.26171875 295.421875 C116.51535156 296.27265625 115.76898438 297.1234375 115 298 C114.38125 298.66 113.7625 299.32 113.125 300 C111.7338964 301.99949686 111.7338964 301.99949686 112.36328125 304.578125 C112.67652344 305.45984375 112.98976563 306.3415625 113.3125 307.25 C113.61800781 308.14203125 113.92351562 309.0340625 114.23828125 309.953125 C114.48964844 310.62859375 114.74101562 311.3040625 115 312 C118.74966096 308.63403759 119.98593875 304.61704918 121.75 300 C122.07871094 299.18015625 122.40742188 298.3603125 122.74609375 297.515625 C123.05160156 296.72671875 123.35710937 295.9378125 123.671875 295.125 C124.09098145 294.04605469 124.09098145 294.04605469 124.51855469 292.9453125 C125.23223878 290.80525007 125.23223878 290.80525007 124 288 Z M102 294 C101.76925781 295.01835937 101.53851563 296.03671875 101.30078125 297.0859375 C99.57475359 304.6091863 97.74327818 312.07710462 95.625 319.5 C93.47782318 327.0889094 91.51089538 334.71705516 89.625 342.375 C89.34994629 343.46361328 89.07489258 344.55222656 88.79150391 345.67382812 C88.41904541 347.20813477 88.41904541 347.20813477 88.0390625 348.7734375 C87.81428223 349.68528809 87.58950195 350.59713867 87.35791016 351.53662109 C86.99225583 354.0533006 87.19372459 355.61183593 88 358 C88 357.34 88 356.68 88 356 C88.66 356 89.32 356 90 356 C91.41859669 354.34009531 91.41859669 354.34009531 92.828125 352.16015625 C93.38113281 351.34353516 93.93414062 350.52691406 94.50390625 349.68554688 C95.08011719 348.81994141 95.65632813 347.95433594 96.25 347.0625 C96.81074219 346.23169922 97.37148438 345.40089844 97.94921875 344.54492188 C99.64065672 342.03510918 101.32121983 339.51829266 103 337 C103.55824463 336.16742676 104.11648926 335.33485352 104.69165039 334.47705078 C105.22266357 333.68411621 105.75367676 332.89118164 106.30078125 332.07421875 C107.0110144 331.01400513 107.0110144 331.01400513 107.7355957 329.93237305 C111.07408319 325.17148646 111.07408319 325.17148646 111.71484375 319.64453125 C110.96165768 316.85815435 109.91020099 314.51958562 108.625 311.9375 C105.89240268 306.1238002 104.34453706 300.26357511 103 294 C102.67 294 102.34 294 102 294 Z M-298 316 C-297.34 317.65 -296.68 319.3 -296 321 C-295.67 320.34 -295.34 319.68 -295 319 C-295.33 318.01 -295.66 317.02 -296 316 C-296.66 316 -297.32 316 -298 316 Z M-295 322 C-294 324 -294 324 -294 324 Z M29.30102539 327.79443359 C27.58388084 328.05503067 27.58388084 328.05503067 25.83204651 328.32089233 C24.59969772 328.51148224 23.36734894 328.70207214 22.09765625 328.8984375 C20.8278038 329.09345856 19.55795135 329.28847961 18.24961853 329.4894104 C15.56361703 329.90256947 12.87801349 330.31821512 10.19262695 330.73535156 C6.75941624 331.26825057 3.32499864 331.79288092 -0.10980892 332.31537437 C-3.39565958 332.81682942 -6.68015667 333.32691675 -9.96484375 333.8359375 C-11.1951683 334.02247894 -12.42549286 334.20902039 -13.69309998 334.4012146 C-14.84101517 334.58125031 -15.98893036 334.76128601 -17.17163086 334.94677734 C-18.6824247 335.17994156 -18.6824247 335.17994156 -20.22373962 335.41781616 C-23.04517232 336.00947267 -25.4330002 336.68228878 -28 338 C-28.98805184 340.57695917 -29.5880277 342.72596208 -30.09765625 345.40234375 C-30.25757553 346.14807144 -30.41749481 346.89379913 -30.58226013 347.66212463 C-31.096429 350.08342626 -31.5797223 352.50976326 -32.0625 354.9375 C-32.40691755 356.59024851 -32.75327238 358.24259449 -33.1015625 359.89453125 C-33.78114139 363.1330198 -34.44909075 366.37352892 -35.10595703 369.61669922 C-35.84144628 373.24217364 -36.60969069 376.85917801 -37.40234375 380.47265625 C-37.76837913 382.14840475 -38.13428236 383.82418213 -38.5 385.5 C-38.65992432 386.23210693 -38.81984863 386.96421387 -38.98461914 387.71850586 C-39.66145019 390.92943625 -40 393.6917778 -40 397 C-31.97978712 396.39576353 -24.11203203 395.30582485 -16.18359375 393.96875 C-15.00531509 393.77277222 -13.82703644 393.57679443 -12.61305237 393.37487793 C-10.14461974 392.96331032 -7.67651859 392.54975002 -5.20874023 392.13427734 C-1.4180596 391.49673036 2.3738756 390.8670831 6.16601562 390.23828125 C8.57039046 389.83640367 10.97469016 389.43407618 13.37890625 389.03125 C14.51526016 388.84268433 15.65161407 388.65411865 16.82240295 388.45983887 C17.86786789 388.28295532 18.91333282 388.10607178 19.99047852 387.92382812 C20.91216324 387.76918091 21.83384796 387.61453369 22.78346252 387.4552002 C25.02774161 387.09368829 25.02774161 387.09368829 27 386 C27.76693059 383.6695394 27.76693059 383.6695394 28.32861328 380.79345703 C28.56871124 379.68205353 28.8088092 378.57065002 29.05618286 377.42556763 C29.43442703 375.61002884 29.43442703 375.61002884 29.8203125 373.7578125 C30.08383514 372.52336395 30.34735779 371.28891541 30.61886597 370.01705933 C31.17586645 367.39998577 31.72962588 364.78247913 32.27783203 362.16357422 C32.98055124 358.80701836 33.69329988 355.45269863 34.40980721 352.09906197 C35.09209677 348.90278005 35.76873545 345.70530776 36.4453125 342.5078125 C36.70152374 341.30150177 36.95773499 340.09519104 37.22171021 338.85232544 C37.45550385 337.73461761 37.68929749 336.61690979 37.93017578 335.46533203 C38.13732208 334.48017609 38.34446838 333.49502014 38.55789185 332.48001099 C39.08775087 329.92761207 39.08775087 329.92761207 39 327 C35.60046304 327 32.6443886 327.283323 29.30102539 327.79443359 Z M-197 331 C-197.99 332.0209375 -197.99 332.0209375 -199 333.0625 C-203.19542847 335.77204755 -206.26600874 334.94886099 -211 334 C-210.938125 335.27875 -210.87625 336.5575 -210.8125 337.875 C-210.76097013 341.49755018 -211.11197129 344.7684731 -211.9140625 348.28515625 C-214.4438428 358.54646965 -214.4438428 358.54646965 -211.125 368.25 C-209.16311413 370.7895518 -209.16311413 370.7895518 -207 373 C-206.07960938 374.00546875 -206.07960938 374.00546875 -205.140625 375.03125 C-201.89905146 378.19446549 -201.89905146 378.19446549 -197.625 379.0625 C-196.09755919 378.44425015 -194.57018228 377.82584232 -193.04296875 377.20703125 C-187.14925375 375.00850008 -182.11542286 374.00235802 -176 376 C-172.33278075 378.31132071 -169.22307716 381.11462584 -166 384 C-164.15322697 385.46768509 -162.29926136 386.92637487 -160.4375 388.375 C-156.12307692 391.75384615 -156.12307692 391.75384615 -155 394 C-154.34 394 -153.68 394 -153 394 C-151.02 386.08 -149.04 378.16 -147 370 C-155.66975953 367.52292585 -163.46813631 366.58725452 -172 370 C-173.32 370 -174.64 370 -176 370 C-175.84765625 367.64453125 -175.84765625 367.64453125 -175 365 C-172.49609375 363.63671875 -172.49609375 363.63671875 -169.4375 362.6875 C-168.42558594 362.36136719 -167.41367188 362.03523438 -166.37109375 361.69921875 C-165.58863281 361.46847656 -164.80617187 361.23773438 -164 361 C-165.53937796 357.08558175 -167.19508062 353.23098075 -168.875 349.375 C-171.48998453 343.33115914 -173.84161888 337.22121616 -176 331 C-178.74922906 331 -180.4647169 331.04618004 -183 332 C-184.97287473 333.97287473 -186.59626629 336.02262322 -188.2265625 338.28515625 C-190 340 -190 340 -192.7109375 340.24609375 C-193.46632812 340.16488281 -194.22171875 340.08367187 -195 340 C-195.91058531 336.92677456 -196.08886184 334.19902639 -196 331 C-196.33 331 -196.66 331 -197 331 Z M-229 335 C-229.47566406 335.96099609 -229.47566406 335.96099609 -229.9609375 336.94140625 C-233.82120934 344.09677201 -238.12049712 347.81896879 -245 352 C-245.71800781 352.4846875 -246.43601562 352.969375 -247.17578125 353.46875 C-252.1425446 356.78635504 -256.7936592 359.13644003 -262.9375 358.875 C-266.90833522 357.74047565 -270.38480166 355.97276052 -274 354 C-272.27433039 358.18500714 -269.37183031 361.311247 -266.4375 364.6875 C-265.90463379 365.30383301 -265.37176758 365.92016602 -264.82275391 366.55517578 C-258.26607593 374.12991297 -258.26607593 374.12991297 -251 381 C-250.34 381 -249.68 381 -249 381 C-248.92523438 379.94941406 -248.85046875 378.89882813 -248.7734375 377.81640625 C-248.0131982 369.08873432 -246.93978772 362.78832883 -241 356 C-240.37996094 355.2471875 -239.75992188 354.494375 -239.12109375 353.71875 C-233.60194666 347.17412464 -233.60194666 347.17412464 -229.125 346.6875 C-226 347 -226 347 -223.75 348.6875 C-221.95581983 351.05838094 -220.93699029 353.18902913 -220 356 C-216.7171883 350.30979306 -216.89006518 344.37621985 -217 338 C-217.66 338.33 -218.32 338.66 -219 339 C-221.875 339.3125 -221.875 339.3125 -225 339 C-227.1953125 336.98046875 -227.1953125 336.98046875 -229 335 Z M-36 335 C-37.98692924 340.5014656 -39.2654651 346.11256891 -40.56640625 351.8046875 C-40.92483864 353.36160812 -40.92483864 353.36160812 -41.29051208 354.94998169 C-41.79372083 357.13997692 -42.29540294 359.33032343 -42.7956543 361.52099609 C-43.5585313 364.85764184 -44.32876891 368.19252994 -45.09960938 371.52734375 C-45.5889897 373.66135564 -46.0779363 375.79546705 -46.56640625 377.9296875 C-46.91017052 379.41443069 -46.91017052 379.41443069 -47.26087952 380.9291687 C-48.476357 386.28157718 -49.42584115 391.54045446 -50 397 C-49.01 397 -48.02 397 -47 397 C-42.51394691 376.69670798 -38.15823066 356.37325226 -34 336 C-34.66 335.67 -35.32 335.34 -36 335 Z M-230 353 C-230.721875 353.886875 -231.44375 354.77375 -232.1875 355.6875 C-233.94534247 357.80989502 -235.70527946 359.68887762 -237.6875 361.625 C-242.06298662 366.11874302 -242.36551745 370.1305365 -242.625 376.25 C-242.66367188 376.99507813 -242.70234375 377.74015625 -242.7421875 378.5078125 C-242.83605108 380.3381524 -242.91909718 382.16904143 -243 384 C-236.60110189 381.7301206 -233.65665146 378.12248442 -230.5078125 372.1875 C-227.64260479 365.84195525 -226.42155628 360.9413247 -227 354 C-227.99 353.67 -228.98 353.34 -230 353 Z M-217 370 C-217.78688445 372.77723925 -218.11949924 375.22610077 -218.09765625 378.109375 C-218.09443359 378.86347656 -218.09121094 379.61757813 -218.08789062 380.39453125 C-218.07951172 381.17183594 -218.07113281 381.94914062 -218.0625 382.75 C-218.05798828 383.54277344 -218.05347656 384.33554687 -218.04882812 385.15234375 C-218.03708565 387.10159508 -218.01915146 389.05080738 -218 391 C-214.04 389.02 -210.08 387.04 -206 385 C-206 380.90139564 -207.61626555 379.89204368 -210.375 376.9375 C-211.18710938 376.05964844 -211.99921875 375.18179687 -212.8359375 374.27734375 C-214.20663219 372.83489789 -215.59297228 371.40702772 -217 370 Z M-226 377 C-228.37015245 379.65484449 -228.37015245 379.65484449 -229 383 C-229.61875 383.2475 -230.2375 383.495 -230.875 383.75 C-233.15543159 384.81738099 -233.15543159 384.81738099 -233.9375 387.0625 C-234.288125 387.701875 -234.63875 388.34125 -235 389 C-237.625 389.75 -237.625 389.75 -240 390 C-239.195625 390.804375 -238.39125 391.60875 -237.5625 392.4375 C-236.375 393.625 -235.1875 394.8125 -234 396 C-229.96839809 396.26293056 -228.44107266 396.29404844 -225 394 C-224.7791436 391.04935852 -224.71939011 388.31631769 -224.8125 385.375 C-224.82603516 384.57320313 -224.83957031 383.77140625 -224.85351562 382.9453125 C-224.88890949 380.96325622 -224.94271766 378.98154449 -225 377 C-225.33 377 -225.66 377 -226 377 Z M-193 384 C-193.86109375 384.48855469 -194.7221875 384.97710937 -195.609375 385.48046875 C-198.75329371 387.29778684 -201.87680008 389.14731634 -205 391 C-207.45253949 392.44763832 -209.91177131 393.88313812 -212.375 395.3125 C-214.05722656 396.29669922 -214.05722656 396.29669922 -215.7734375 397.30078125 C-218.81077677 398.90034854 -221.71630104 400.02282675 -225 401 C-223.90742545 404.27772365 -223.49428582 404.63096752 -220.76171875 406.4453125 C-220.10623047 406.88230469 -219.45074219 407.31929688 -218.77539062 407.76953125 C-217.74188477 408.44048828 -217.74188477 408.44048828 -216.6875 409.125 C-216.01009766 409.58003906 -215.33269531 410.03507812 -214.63476562 410.50390625 C-211.41759769 412.62352618 -208.81347555 414.21745234 -205 415 C-204.13375 413.7934375 -204.13375 413.7934375 -203.25 412.5625 C-201 410 -201 410 -199.078125 409.1328125 C-197 409 -197 409 -195.21875 410.36328125 C-194.36796875 411.32814453 -194.36796875 411.32814453 -193.5 412.3125 C-191.16544322 414.92826476 -189.29248833 416.71022603 -186 418 C-182.83304044 418.16724737 -182.83304044 418.16724737 -180 418 C-181.85912782 412.57754384 -184.29396966 409.07045041 -189.1875 406 C-192 404 -192 404 -192.875 401.25 C-192.91625 400.5075 -192.9575 399.765 -193 399 C-188.33960458 398.49768193 -185.98176256 399.2889709 -182.3046875 402.19921875 C-181.79164063 402.62847656 -181.27859375 403.05773437 -180.75 403.5 C-177.28459895 406.7391787 -177.28459895 406.7391787 -173 408 C-174.68535169 401.04792427 -181.54429449 397.03673278 -187 393 C-186.67 391.68 -186.34 390.36 -186 389 C-180.27993975 388.58676371 -177.18874322 389.61367126 -172.3125 392.5625 C-168.23386607 395.28752017 -168.23386607 395.28752017 -163.60546875 395.71484375 C-163.07566406 395.47894531 -162.54585937 395.24304688 -162 395 C-163.56089026 393.58155991 -165.1237889 392.16532975 -166.6875 390.75 C-167.55761719 389.96109375 -168.42773438 389.1721875 -169.32421875 388.359375 C-177.10498886 381.49866676 -183.28970586 378.4376071 -193 384 Z M-10.3125 399 C-11.19550781 399.185625 -12.07851563 399.37125 -12.98828125 399.5625 C-13.65214844 399.706875 -14.31601562 399.85125 -15 400 C-15.71626282 404.19851931 -16.42821704 408.39773988 -17.13623047 412.59765625 C-17.37756682 414.02558999 -17.62006848 415.45332731 -17.86376953 416.88085938 C-18.2143498 418.93568902 -18.56069948 420.99119431 -18.90625 423.046875 C-19.11572266 424.28276367 -19.32519531 425.51865234 -19.54101562 426.79199219 C-20.09442153 430.11983356 -20.09442153 430.11983356 -20 434 C-18.47757149 433.56808366 -16.95714081 433.12912438 -15.4375 432.6875 C-14.59058594 432.44386719 -13.74367188 432.20023437 -12.87109375 431.94921875 C-11.92363281 431.63597656 -10.97617187 431.32273437 -10 431 C-8.7728125 430.67902344 -7.545625 430.35804688 -6.28125 430.02734375 C-2.92574799 428.40048972 -2.92574799 428.40048972 -2.16235352 425.93530273 C-1.62327767 423.24568903 -1.30896655 420.60682775 -1.0625 417.875 C-0.95099609 416.96234375 -0.83949219 416.0496875 -0.72460938 415.109375 C-0.06789277 409.38247989 0.10013484 403.76069843 0 398 C-3.59519292 397.8963548 -6.79789232 398.25021703 -10.3125 399 Z M-23 401 C-23.99 401.33 -24.98 401.66 -26 402 C-26.88115472 406.80402062 -27.75376331 411.60948429 -28.6184082 416.41650391 C-28.91389991 418.0523486 -29.21174299 419.68777035 -29.51196289 421.32275391 C-29.94252136 423.66983134 -30.36466386 426.0182886 -30.78515625 428.3671875 C-30.92156021 429.10057343 -31.05796417 429.83395935 -31.19850159 430.58956909 C-32.01742967 434.38755048 -32.01742967 434.38755048 -31 438 C-29.515 437.505 -29.515 437.505 -28 437 C-27.13844719 434.29683801 -26.52795442 431.77620976 -26 429 C-25.82033691 428.06220703 -25.64067383 427.12441406 -25.45556641 426.15820312 C-24.8792743 423.02646429 -24.34157031 419.89004185 -23.8125 416.75 C-23.62236328 415.67492187 -23.43222656 414.59984375 -23.23632812 413.4921875 C-22.97432617 411.94144531 -22.97432617 411.94144531 -22.70703125 410.359375 C-22.5469458 409.42577148 -22.38686035 408.49216797 -22.22192383 407.53027344 C-22.00384413 405.04382895 -22.2304198 403.35465993 -23 401 Z M-161 405 C-159.35 405 -157.7 405 -156 405 C-156 404.34 -156 403.68 -156 403 C-158.32357511 402.81509993 -158.32357511 402.81509993 -161 405 Z M-165 411 C-165 411.66 -165 412.32 -165 413 C-163.35 412.67 -161.7 412.34 -160 412 C-160 411.67 -160 411.34 -160 411 C-161.65 411 -163.3 411 -165 411 Z M-199 418 C-198.01 419.485 -198.01 419.485 -197 421 C-196.01 420.67 -195.02 420.34 -194 420 C-196.475 419.01 -196.475 419.01 -199 418 Z M-165.69140625 420.53125 C-166.63564453 420.84707031 -167.57988281 421.16289062 -168.55273438 421.48828125 C-169.54595703 421.82214844 -170.53917969 422.15601563 -171.5625 422.5 C-173.05813477 423.00080078 -173.05813477 423.00080078 -174.58398438 423.51171875 C-177.05643949 424.33981376 -179.52841872 425.16930125 -182 426 C-182 426.66 -182 427.32 -182 428 C-177.80361263 430.25714775 -174.51323204 431.31251531 -169.765625 430.33203125 C-163.96452824 428.40196469 -163.96452824 428.40196469 -160.015625 424.09765625 C-159.65147167 421.98013597 -159.65147167 421.98013597 -160 419 C-161.95385778 419 -163.86158406 419.91765693 -165.69140625 420.53125 Z " fill="#000000" transform="translate(329,24)"/>
<path d="M0 0 C4.63767005 2.67143069 8.02810446 6.11657049 10 11.125 C12.29898328 19.85815075 12.04443538 28.91112925 8 37 C5.3030824 41.18487214 2.71646715 43.33536453 -2 45 C-6.87178962 45 -10.0733707 43.96094279 -13.64453125 40.54296875 C-19.46733195 33.91470859 -19.8104424 26.70224423 -19.44921875 18.15234375 C-18.88131285 11.12590019 -16.30825806 6.15437418 -11.1875 1.375 C-7.27250139 -0.31382293 -4.12692845 -1.1262272 0 0 Z M-7.4375 7.4375 C-11.68111482 11.68111482 -12.87675166 16.65828161 -13.1875 22.5625 C-13.125625 23.366875 -13.06375 24.17125 -13 25 C-10.73837042 24.12244101 -10.73837042 24.12244101 -9.75 21.4375 C-8 19 -8 19 -5 18.4375 C-2 19 -2 19 -0.1875 20.4375 C1.54536807 24.17684688 1.7471602 27.91968874 2 32 C4.83830608 29.16169392 4.71604969 26.71001299 5.02734375 22.8046875 C4.96887748 16.80771848 3.66079333 11.70130048 -0.5625 7.375 C-3.77052028 5.56534754 -4.26015167 5.56367919 -7.4375 7.4375 Z " fill="#000000" transform="translate(373,130)"/>
<path d="M0 0 C5.80886682 4.59305748 9.37187088 10.88523428 10.2734375 18.2265625 C10.56785991 25.179461 8.88492747 30.22539313 5 36 C1.72799882 39.11981508 -0.66243208 40.78598913 -5.125 41.5 C-10.65908471 40.78592455 -13.51248909 38.25727684 -17 34 C-20.67631742 27.35811985 -21.18597242 19.59648066 -19.30859375 12.3203125 C-17.28060059 6.60120207 -15.06793936 3.34268341 -10 0 C-6.1544104 -1.2818632 -3.93271581 -0.94927623 0 0 Z M-9.6875 8.3125 C-13.0019052 12.16437632 -13.15678157 14.94776319 -13.1875 19.875 C-13.20167969 20.90367187 -13.21585937 21.93234375 -13.23046875 22.9921875 C-12.99581369 26.05463488 -12.29184572 28.23248861 -11 31 C-8.81165738 29.03307413 -8.81165738 29.03307413 -7.5625 26 C-6 23 -6 23 -3 21 C0.1875 20.875 0.1875 20.875 3 21 C2.46602652 14.69911292 1.61841897 10.61841897 -3 6 C-7.08557003 5.56517206 -7.08557003 5.56517206 -9.6875 8.3125 Z M-2 27 C-2.33 29.31 -2.66 31.62 -3 34 C-2.01 33.34 -1.02 32.68 0 32 C-0.33 30.35 -0.66 28.7 -1 27 C-1.33 27 -1.66 27 -2 27 Z " fill="#000000" transform="translate(116,219)"/>
<path d="M0 0 C1.022146 0.00418945 2.04429199 0.00837891 3.09741211 0.01269531 C12.32404943 0.15079004 22.82995148 0.52391116 29.8125 7.3125 C30.5625 10.3125 30.5625 10.3125 29.8125 13.3125 C22.2954956 20.07780396 12.41233925 19.93360156 2.83105469 19.46923828 C-5.83498255 18.79633118 -14.91728164 17.25624848 -22.1875 12.3125 C-23.5 9.875 -23.5 9.875 -23.1875 7.3125 C-17.37541824 -0.49748486 -8.90448321 -0.04924806 0 0 Z M-14.1875 8.3125 C-6.98386035 12.16523311 0.66435187 12.50618523 8.6875 12.5625 C9.42508545 12.57168457 10.1626709 12.58086914 10.92260742 12.59033203 C14.70101081 12.56869913 17.60945387 12.42550425 20.8125 10.3125 C8.14972835 6.6191916 -1.07390156 5.86462829 -14.1875 8.3125 Z " fill="#000000" transform="translate(129.1875,295.6875)"/>
<path d="M0 0 C3.58397391 3.05019056 5.5856984 5.49994945 7 10 C6.01 10.99 5.02 11.98 4 13 C1.20200015 11.90078577 -0.03550018 10.95533848 -1.9375 8.5625 C-5.45938395 4.186826 -8.58367794 2.88743762 -14.0625 2.1875 C-17.81252101 1.78880747 -19.7089551 2.22466021 -23 4 C-25.25 3.625 -25.25 3.625 -27 3 C-27 0.1875 -27 0.1875 -26 -3 C-17.5786138 -9.05824211 -7.65102762 -5.28886569 0 0 Z " fill="#000000" transform="translate(392,110)"/>
<path d="" fill="#000000" transform="translate(0,0)"/>
<path d="" fill="#000000" transform="translate(0,0)"/>
<path d="M0 0 C3 1 3 1 3 1 Z " fill="#000000" transform="translate(319,308)"/>
<path d="M0 0 C2 1 2 1 2 1 Z " fill="#000000" transform="translate(315,309)"/>
<path d="" fill="#000000" transform="translate(0,0)"/>
<path d="" fill="#000000" transform="translate(0,0)"/>
<path d="" fill="#000000" transform="translate(0,0)"/>
</svg>
